<?xml version="1.0" encoding="UTF-8"?>
<svg xmlns="http://www.w3.org/2000/svg" version="1.1" viewBox="0 0 1521 1080">
  <defs>
    <style>
      .cls-1 {
        fill: #fff;
      }
    </style>
  </defs>
  <!-- Generator: Adobe Illustrator 28.6.0, SVG Export Plug-In . SVG Version: 1.2.0 Build 709)  -->
  <g>
    <g id="Layer_1">
      <g>
        <g>
          <path d="M225.04,801.03c0,23.58-8.25,41.95-24.7,55.09-16.46,13.14-39.56,19.71-69.26,19.71-15.71,0-29.9-1.96-42.56-5.89-12.66-3.93-23.39-9.52-32.25-16.77-8.83-7.24-15.6-16.08-20.25-26.53-4.69-10.44-7.02-22.05-7.02-34.83h44.23c0,6.15,1.41,11.92,4.22,17.32,2.83,5.4,6.84,10.01,12,13.82,5.16,3.81,11.3,6.81,18.41,9.03,7.11,2.21,14.85,3.31,23.22,3.31,14.74,0,26.72-2.95,35.92-8.84,9.22-5.89,13.83-13.51,13.83-22.85s-4.3-16.46-12.9-22.11c-8.6-5.65-22.61-10.18-42.02-13.63-30.72-5.65-53-14.12-66.88-25.42-13.88-11.3-20.83-26.65-20.83-46.05,0-11.06,2.15-21.13,6.45-30.22,4.3-9.08,10.4-16.94,18.25-23.58,7.86-6.63,17.2-11.79,28-15.48,10.81-3.68,22.73-5.52,35.75-5.52s24.98,1.84,35.92,5.52c10.93,3.68,20.33,8.91,28.18,15.67,7.86,6.76,14.01,14.73,18.43,23.95,4.44,9.21,6.63,19.35,6.63,30.4h-44.21c0-10.32-4.18-18.73-12.53-25.24-8.35-6.51-19.29-9.76-32.79-9.76s-23.59,2.64-31.68,7.91c-8.13,5.29-12.17,12.22-12.17,20.82s4.44,15.61,13.27,21c8.83,5.42,23.45,10.2,43.86,14.37,15.22,2.95,28.24,6.58,39.05,10.88,10.81,4.3,19.66,9.46,26.54,15.47,6.88,6.03,11.92,13.03,15.11,21.01,3.19,7.98,4.79,17.13,4.79,27.45Z"/>
          <path d="M255.47,748.7c0-18.66,3.19-35.79,9.6-51.4,6.37-15.59,15.28-28.98,26.7-40.16,11.43-11.18,25.02-19.91,40.73-26.17,15.71-6.26,33.03-9.39,51.95-9.39s36.31,3.13,52.14,9.39c15.85,6.26,29.47,14.99,40.9,26.17,11.43,11.18,20.33,24.57,26.72,40.16,6.39,15.61,9.58,32.74,9.58,51.4s-3.25,35.07-9.77,50.66c-6.49,15.61-15.52,29.06-27.07,40.36-11.55,11.3-25.19,20.14-40.9,26.53-15.71,6.38-32.91,9.58-51.59,9.58s-36.23-3.13-51.95-9.39c-15.71-6.27-29.3-15.05-40.73-26.35-11.41-11.3-20.32-24.68-26.7-40.16-6.41-15.48-9.6-32.55-9.6-51.22ZM299.69,748.7c0,12.53,2.07,24.14,6.25,34.83,4.18,10.68,10.01,19.84,17.51,27.45,7.48,7.62,16.4,13.58,26.72,17.87,10.32,4.3,21.75,6.45,34.26,6.45s23.65-2.15,34.08-6.45c10.44-4.29,19.41-10.32,26.91-18.06,7.49-7.74,13.39-16.88,17.69-27.45,4.3-10.56,6.45-22.11,6.45-34.64s-2.09-24.44-6.27-35c-4.16-10.56-10.01-19.65-17.49-27.27-7.51-7.6-16.46-13.56-26.91-17.86-10.44-4.3-21.91-6.45-34.45-6.45s-23.94,2.15-34.26,6.45c-10.32,4.3-19.23,10.26-26.72,17.86-7.51,7.62-13.33,16.71-17.51,27.27-4.18,10.56-6.25,22.23-6.25,35Z"/>
          <path d="M598.63,625.26v206.35h119.76v40.53h-163.97v-246.88h44.21Z"/>
          <path d="M953.3,625.26v246.88h-46.08l-113.12-175.03v175.03h-44.21v-246.88h46.04l113.14,175.03v-175.03h44.23Z"/>
          <path d="M994.65,748.7c0-18.66,3.21-35.79,9.58-51.4,6.41-15.59,15.32-28.98,26.74-40.16,11.41-11.18,24.98-19.91,40.73-26.17,15.71-6.26,33.03-9.39,51.95-9.39s36.31,3.13,52.14,9.39c15.83,6.26,29.47,14.99,40.88,26.17,11.45,11.18,20.33,24.57,26.74,40.16,6.37,15.61,9.58,32.74,9.58,51.4s-3.24,35.07-9.77,50.66c-6.53,15.61-15.52,29.06-27.09,40.36-11.53,11.3-25.17,20.14-40.88,26.53-15.75,6.38-32.95,9.58-51.59,9.58s-36.23-3.13-51.95-9.39c-15.75-6.27-29.32-15.05-40.73-26.35-11.41-11.3-20.32-24.68-26.74-40.16-6.37-15.48-9.58-32.55-9.58-51.22ZM1038.9,748.7c0,12.53,2.07,24.14,6.25,34.83,4.18,10.68,10.01,19.84,17.51,27.45,7.47,7.62,16.38,13.58,26.7,17.87,10.32,4.3,21.73,6.45,34.28,6.45s23.65-2.15,34.08-6.45c10.44-4.29,19.39-10.32,26.89-18.06,7.51-7.74,13.41-16.88,17.71-27.45,4.3-10.56,6.45-22.11,6.45-34.64s-2.11-24.44-6.29-35c-4.18-10.56-10.01-19.65-17.47-27.27-7.5-7.6-16.49-13.56-26.93-17.86-10.44-4.3-21.93-6.45-34.44-6.45s-23.96,2.15-34.28,6.45c-10.32,4.3-19.23,10.26-26.7,17.86-7.5,7.62-13.33,16.71-17.51,27.27-4.18,10.56-6.25,22.23-6.25,35Z"/>
          <path d="M1491.29,625.26l-77.74,120.49,81.46,126.39h-52.69l-63.01-99.12-62.66,99.12h-52.69l81.07-126.39-77.39-120.49h52.69l58.98,93.22,59.29-93.22h52.69Z"/>
        </g>
        <g>
          <path d="M314.16,1016.29c0,10.07-3.52,17.92-10.55,23.54-7.04,5.62-16.91,8.42-29.61,8.42-6.72,0-12.78-.84-18.19-2.52-5.39-1.67-9.99-4.07-13.78-7.16-3.77-3.1-6.66-6.88-8.66-11.34-1.99-4.46-2.99-9.42-2.99-14.88h18.9c0,2.62.61,5.09,1.82,7.4,1.19,2.32,2.91,4.28,5.1,5.91,2.21,1.62,4.83,2.91,7.88,3.85,3.05.95,6.35,1.42,9.93,1.42,6.29,0,11.41-1.26,15.36-3.77,3.93-2.52,5.9-5.78,5.9-9.77s-1.84-7.03-5.51-9.44c-3.67-2.42-9.67-4.36-17.96-5.84-13.11-2.41-22.65-6.03-28.57-10.87-5.94-4.83-8.91-11.38-8.91-19.68,0-4.73.92-9.03,2.76-12.92,1.84-3.88,4.44-7.24,7.8-10.08,3.36-2.83,7.35-5.04,11.98-6.62,4.61-1.57,9.69-2.37,15.26-2.37s10.69.79,15.36,2.37c4.67,1.57,8.68,3.81,12.04,6.69,3.36,2.89,6,6.3,7.88,10.23,1.89,3.94,2.83,8.28,2.83,13h-18.9c0-4.41-1.78-8-5.36-10.79-3.56-2.77-8.23-4.17-14.01-4.17s-10.09,1.13-13.54,3.38c-3.46,2.27-5.2,5.23-5.2,8.9s1.9,6.67,5.67,8.98c3.79,2.31,10.03,4.36,18.74,6.14,6.51,1.26,12.08,2.81,16.69,4.65,4.63,1.84,8.4,4.03,11.35,6.6,2.93,2.58,5.08,5.57,6.45,8.98,1.37,3.41,2.05,7.32,2.05,11.73Z"/>
          <path d="M437.26,1006.21v40.47h-18.9v-40.47l-36.06-65.04h21.4l24.25,44.57,24.1-44.57h21.42l-36.21,65.04Z"/>
          <path d="M625.4,1016.29c0,10.07-3.52,17.92-10.55,23.54-7.04,5.62-16.9,8.42-29.61,8.42-6.72,0-12.78-.84-18.2-2.52-5.39-1.67-9.98-4.07-13.78-7.16-3.77-3.1-6.67-6.88-8.66-11.34-1.99-4.46-2.99-9.42-2.99-14.88h18.9c0,2.62.61,5.09,1.82,7.4,1.19,2.32,2.91,4.28,5.1,5.91,2.21,1.62,4.83,2.91,7.88,3.85,3.05.95,6.35,1.42,9.93,1.42,6.29,0,11.41-1.26,15.36-3.77,3.93-2.52,5.9-5.78,5.9-9.77s-1.84-7.03-5.51-9.44c-3.67-2.42-9.67-4.36-17.96-5.84-13.11-2.41-22.65-6.03-28.57-10.87-5.94-4.83-8.91-11.38-8.91-19.68,0-4.73.92-9.03,2.76-12.92,1.84-3.88,4.44-7.24,7.8-10.08,3.36-2.83,7.35-5.04,11.98-6.62,4.61-1.57,9.69-2.37,15.26-2.37s10.69.79,15.36,2.37c4.67,1.57,8.68,3.81,12.04,6.69,3.36,2.89,6,6.3,7.87,10.23,1.9,3.94,2.84,8.28,2.84,13h-18.9c0-4.41-1.78-8-5.35-10.79-3.56-2.77-8.23-4.17-14.01-4.17s-10.08,1.13-13.54,3.38c-3.46,2.27-5.2,5.23-5.2,8.9s1.9,6.67,5.67,8.98c3.79,2.31,10.03,4.36,18.74,6.14,6.51,1.26,12.08,2.81,16.69,4.65,4.63,1.84,8.4,4.03,11.35,6.6,2.93,2.58,5.08,5.57,6.45,8.98,1.37,3.41,2.05,7.32,2.05,11.73Z"/>
          <path d="M783.78,958.49h-33.07v88.19h-18.9v-88.19h-33.09v-17.32h85.05v17.32Z"/>
          <path d="M934.85,958.49h-55.13v25.98h49.62v17.32h-49.62v27.56h55.13v17.33h-74.03v-105.52h74.03v17.32Z"/>
          <path d="M1072.98,1016.29l30.23-75.12h24.57v105.52h-18.9v-72.92l-29.45,72.92h-12.92l-29.45-72.92v72.92h-18.9v-105.52h24.59l30.23,75.12Z"/>
          <path d="M1293.62,1016.29c0,10.07-3.52,17.92-10.55,23.54-7.04,5.62-16.9,8.42-29.61,8.42-6.72,0-12.78-.84-18.19-2.52-5.39-1.67-9.99-4.07-13.78-7.16-3.77-3.1-6.66-6.88-8.66-11.34-1.99-4.46-2.99-9.42-2.99-14.88h18.9c0,2.62.61,5.09,1.82,7.4,1.19,2.32,2.91,4.28,5.1,5.91,2.21,1.62,4.83,2.91,7.87,3.85,3.05.95,6.35,1.42,9.93,1.42,6.29,0,11.41-1.26,15.36-3.77,3.93-2.52,5.9-5.78,5.9-9.77s-1.84-7.03-5.51-9.44c-3.67-2.42-9.67-4.36-17.96-5.84-13.11-2.41-22.65-6.03-28.57-10.87-5.94-4.83-8.91-11.38-8.91-19.68,0-4.73.92-9.03,2.76-12.92,1.84-3.88,4.44-7.24,7.8-10.08,3.36-2.83,7.35-5.04,11.98-6.62,4.61-1.57,9.69-2.37,15.26-2.37s10.69.79,15.36,2.37c4.67,1.57,8.68,3.81,12.04,6.69,3.36,2.89,6,6.3,7.87,10.23,1.9,3.94,2.83,8.28,2.83,13h-18.9c0-4.41-1.78-8-5.36-10.79-3.56-2.77-8.23-4.17-14.01-4.17s-10.08,1.13-13.54,3.38c-3.46,2.27-5.2,5.23-5.2,8.9s1.9,6.67,5.67,8.98c3.79,2.31,10.02,4.36,18.74,6.14,6.51,1.26,12.08,2.81,16.69,4.65,4.63,1.84,8.4,4.03,11.35,6.6,2.93,2.58,5.08,5.57,6.45,8.98,1.37,3.41,2.05,7.32,2.05,11.73Z"/>
        </g>
        <g>
          <path d="M1325.49,567.86c-375.08-63.15-749.98-63.39-1125.07-.47-8.37,1.4-11.72-10.47-3.82-13.59,194.44-76.77,398.55-101.19,607.34-96.87,180.83,3.74,357.53,29.98,525.44,97.42,7.83,3.15,4.43,14.91-3.89,13.5Z"/>
          <path d="M1058.35,458.98c-19.05-3.24-38.5-5.88-58.16-8.51-15.2-111.46-98.29-197.99-212.58-216.64-133.75-21.89-266.28,74.37-286.75,208.53-.61,3.85-1.22,7.7-1.62,11.75-19.66,2.64-39.11,5.88-58.16,9.53,6.69-86.33,41.34-160.1,109.84-216.03,94.44-77.41,201.44-95.65,314.72-50.06,110.04,44.18,172.66,129.09,191.3,246.22.81,5.07,1.22,10.13,1.42,15.2Z"/>
          <g>
            <path d="M906.23,115.55l-7.86,43.32c-1.07,5.88-7.32,9.06-12.81,6.7-5.08-2.19-10.22-4.22-15.42-6.13-5.6-2.05-7.94-8.67-4.68-13.66l24.03-36.88c5.47-8.4,18.53-3.21,16.74,6.66Z"/>
            <path d="M432.3,348.33c-2.19,5.08-4.22,10.23-6.13,15.43-2.05,5.6-8.66,7.93-13.66,4.68l-36.95-24.04c-8.4-5.47-3.22-18.53,6.65-16.74l43.38,7.86c5.88,1.07,9.06,7.32,6.7,12.81Z"/>
            <path d="M1121.05,333.58l-36.32,25.23c-4.88,3.39-11.53,1.28-13.77-4.22-2.13-5.21-4.38-10.37-6.75-15.44-2.53-5.41.51-11.75,6.35-12.98l43.36-9.12c9.8-2.06,15.36,10.82,7.13,16.54Z"/>
            <path d="M621.18,163.04c-5.21,2.11-10.36,4.33-15.43,6.68-5.42,2.51-11.74-.52-12.97-6.36l-9.11-43.31c-2.06-9.8,10.83-15.36,16.54-7.13l25.21,36.34c3.39,4.88,1.27,11.55-4.24,13.77Z"/>
            <path d="M1068.5,174.13l-53.51,71.12c-3.44,4.58-10.1,4.83-14.03.67-5.26-5.56-10.71-10.94-16.33-16.11-4.22-3.88-4.06-10.55.48-14.05l70.44-54.42c8.47-6.55,19.4,4.24,12.96,12.79Z"/>
            <path d="M512.65,232.94c-5.6,5.3-11.03,10.79-16.23,16.46-3.88,4.22-10.54,4.05-14.05-.49l-54.58-70.7c-6.54-8.47,4.24-19.39,12.79-12.96l71.38,53.66c4.58,3.44,4.84,10.09.68,14.03Z"/>
            <path d="M768.92,127.66c.8,5.6-3.6,10.65-9.25,10.47-3.1-.1-6.22-.15-9.36-.15-4.63,0-9.22.11-13.79.3-5.74.24-10.34-4.63-9.62-10.32l11.29-88.2c1.36-10.62,16.7-10.73,18.21-.13l12.51,88.02Z"/>
          </g>
          <rect class="cls-1" x="750.2" y="483.58" width=".12" height=".12"/>
        </g>
      </g>
    </g>
  </g>
</svg>